<svg id="filled_outline" height="512" viewBox="0 0 512 512" width="512" xmlns="http://www.w3.org/2000/svg" data-name="filled outline"><path d="m472 126.63v345.37a15.99555 15.99555 0 0 1 -16 16h-320v-448a15.99552 15.99552 0 0 1 16-16h217.37012a16.14443 16.14443 0 0 1 11.31982 4.69l86.62012 86.62a16.14437 16.14437 0 0 1 4.68994 11.32z" fill="#548aff"/><path d="m232 312-7.27 32-3.64 16-29.09 128h-112l-40-176z" fill="#ffc431"/><path d="m144 312 32-104 48 16-27.077 88z" fill="#d1e4ff"/><path d="m146 312h-34l-24-96 32-8z" fill="#4976f2"/><path d="m112 312h-40l-8-32-3.29-13.18a19.4057 19.4057 0 0 1 14.11011-23.53 19.64548 19.64548 0 0 1 4.71-.58 19.41776 19.41776 0 0 1 18.82007 14.7l3.2998 13.18z" fill="#ef5e3b"/><path d="m101.6499 270.59-37.6499 9.41-3.29-13.18a19.4057 19.4057 0 0 1 14.11011-23.53 19.64548 19.64548 0 0 1 4.71-.58 19.41776 19.41776 0 0 1 18.82007 14.7z" fill="#fa8669"/><path d="m91.508 211.508h32.985v32.985h-32.985z" fill="#639aff" transform="matrix(.97 -.243 .243 .97 -52.074 33.001)"/><path d="m470.55005 120h-70.55005a24.00619 24.00619 0 0 1 -24-24v-70.55a15.82323 15.82323 0 0 1 4.68994 3.24l86.62012 86.62a15.82761 15.82761 0 0 1 3.23999 4.69z" fill="#7dafff"/><path d="m72.19922 489.773a7.99925 7.99925 0 0 0 7.80078 6.227h112a7.99925 7.99925 0 0 0 7.80078-6.22705l40-176a8.00023 8.00023 0 0 0 -7.80078-9.77295h-24.24512l23.8916-77.64746a8.00083 8.00083 0 0 0 -5.11621-9.9419l-48-16a8 8 0 0 0 -10.17675 5.23682l-22.45289 72.9718-18.13989-72.55969a7.99917 7.99917 0 0 0 -9.70117-5.8208l-8.49292 2.12323-5.87427-20.55975a8.00018 8.00018 0 1 0 -15.38476 4.3955l5.72778 20.04706-7.97583 1.994a7.99952 7.99952 0 0 0 -5.82031 9.70166l4.31152 17.2464a27.39424 27.39424 0 0 0 -31.60547 33.57733l8.80884 35.2358h-21.75415a8.00023 8.00023 0 0 0 -7.80078 9.77295zm109.03906-271.59429 32.81641 10.939-23.04053 74.88229h-36.18237zm-62.99243 85.82129-12.54468-50.179 16.47783-4.1194 13.57515 54.2984zm.05249-69.82092-16.47778 4.11944-4.11939-16.47772 16.47754-4.11914zm-48.54734 22.07192a11.40307 11.40307 0 0 1 20.84082 3.10107l1.35376 5.41522-22.12478 5.53117-1.354-5.41565a11.33191 11.33191 0 0 1 1.2842-8.63181zm3.95017 29.57 22.12525-5.53131 5.92773 23.71031h-23.5083zm148.27637 34.179-5.45454 24h-96.523v16h92.88672l-27.27246 120h-99.22852l-36.36328-160z"/><path d="m88 344h16v16h-16z"/><circle cx="192" cy="240" r="8"/><path d="m144 40a8.00917 8.00917 0 0 1 8-8h216v64a32.03635 32.03635 0 0 0 32 32h32v-16h-32a16.01833 16.01833 0 0 1 -16-16v-52.686l77.65625 77.65625a7.94677 7.94677 0 0 1 2.34375 5.65719v345.37256a8.00917 8.00917 0 0 1 -8 8h-232v16h232a24.0275 24.0275 0 0 0 24-24v-345.37256a23.84254 23.84254 0 0 0 -7.0293-16.9707l-86.627-86.62695a23.84385 23.84385 0 0 0 -16.97065-7.02979h-217.37305a24.0275 24.0275 0 0 0 -24 24v144h16z"/><path d="m304 232.13116v71.86884h-48v16h48v16h-48v16h48v16h-48v16h48v16h-48v16h48v16h-48v16h168a8.00008 8.00008 0 0 0 8-8v-216a8.00039 8.00039 0 0 0 -8-8h-.00879l-168 .18359.01758 16zm16 47.86884h40v24h-40zm56 88v-16h40v16zm40 16v16h-40v-16zm-40-48v-16h40v16zm0-32v-24h40v24zm-56 16h40v16h-40zm0 32h40v16h-40zm0 32h40v16h-40zm0 32h40v16h-40zm56 16v-16h40v16zm40-168h-96v-31.88635l96-.10486z"/><path d="m168 64h32v16h-32z"/><path d="m216 64h72v16h-72z"/><path d="m304 64h24v16h-24z"/><path d="m168 104h56v16h-56z"/><path d="m240 104h32v16h-32z"/><path d="m288 104h40v16h-40z"/><path d="m168 144h16v16h-16z"/><path d="m200 144h104v16h-104z"/><path d="m320 144h64v16h-64z"/></svg>